<svg width="29" height="32" viewBox="0 0 29 32" fill="none" xmlns="http://www.w3.org/2000/svg">
<path d="M2.1077 5.95996H21.2776C23.6959 5.95996 25.6567 7.91673 25.6567 10.3302V16.9853H0V8.0634C0 6.90116 0.943797 5.95996 2.1077 5.95996Z" fill="#794925"/>
<path opacity="0.1" d="M25.6568 10.3295V16.9846H24.6392V10.8056C24.6392 8.75015 22.9696 7.08394 20.91 7.08394H1.0902C0.748207 7.08394 0.425714 7.16527 0.140137 7.30985C0.443127 6.5195 1.21001 5.95923 2.10783 5.95923H21.2777C23.6968 5.95923 25.6568 7.916 25.6568 10.3295Z" fill="black"/>
<path d="M11.4565 16.7191C16.0827 16.7191 19.833 12.9764 19.833 8.35955C19.833 3.7427 16.0827 0 11.4565 0C6.83035 0 3.08008 3.7427 3.08008 8.35955C3.08008 12.9764 6.83035 16.7191 11.4565 16.7191Z" fill="#C1771E"/>
<path d="M12.2744 16.7191C16.9006 16.7191 20.6509 12.9764 20.6509 8.35955C20.6509 3.7427 16.9006 0 12.2744 0C7.64822 0 3.89795 3.7427 3.89795 8.35955C3.89795 12.9764 7.64822 16.7191 12.2744 16.7191Z" fill="#F8A328"/>
<path d="M12.2741 14.4704C15.6558 14.4704 18.3973 11.7345 18.3973 8.3596C18.3973 4.98469 15.6558 2.24878 12.2741 2.24878C8.89232 2.24878 6.15088 4.98469 6.15088 8.3596C6.15088 11.7345 8.89232 14.4704 12.2741 14.4704Z" fill="#926015"/>
<path d="M14.4015 8.34144C14.7616 7.99874 14.9859 7.51563 14.9859 6.98108C14.9859 6.14624 14.4377 5.43722 13.682 5.19184V4.46543C13.682 4.17765 13.4479 3.94409 13.1596 3.94409C12.8712 3.94409 12.6372 4.17765 12.6372 4.46543V5.10008H11.8424V4.46543C11.8424 4.17765 11.6084 3.94409 11.32 3.94409C11.0317 3.94409 10.7976 4.17765 10.7976 4.46543V5.10008H9.9848C9.69644 5.10008 9.4624 5.33364 9.4624 5.62142C9.4624 5.9092 9.69644 6.14277 9.9848 6.14277H10.7976V7.8201V8.86278V10.5401H9.9848C9.69644 10.5401 9.4624 10.7737 9.4624 11.0615C9.4624 11.3492 9.69644 11.5828 9.9848 11.5828H13.1011C14.1403 11.5828 14.9859 10.7389 14.9859 9.7011C14.9859 9.16724 14.7609 8.68413 14.4015 8.34144ZM11.8424 6.14277H13.1011C13.5643 6.14277 13.9411 6.51883 13.9411 6.98108C13.9411 7.44334 13.5643 7.8201 13.1011 7.8201H11.8424V6.14277ZM13.1011 10.5401H11.8424V8.86278H13.1011C13.5643 8.86278 13.9411 9.23884 13.9411 9.7018C13.9411 10.1647 13.5643 10.5401 13.1011 10.5401Z" fill="#F8A328"/>
<path d="M5.43293 32C2.43228 32 0 29.5726 0 26.578V8.20801C0 9.40988 0.976534 10.3844 2.18083 10.3844H20.2237C23.2244 10.3844 25.6567 12.8118 25.6567 15.8064V26.578C25.6567 29.5726 23.2244 32 20.2237 32H5.43293Z" fill="#5A371B"/>
<path d="M25.6567 13.7209H27.3827C28.2757 13.7209 29.0001 14.4432 29.0001 15.335V16.9852H25.6567V13.7209Z" fill="#5A371B"/>
<path d="M6.48051 18.6529V16.09H11.3792C11.6049 16.6933 12.1879 17.1229 12.8712 17.1229C13.7502 17.1229 14.4634 16.4111 14.4634 15.5339C14.4634 14.6566 13.7502 13.9448 12.8712 13.9448C12.1879 13.9448 11.6056 14.3744 11.3792 14.9778H5.92329C5.61542 14.9778 5.36606 15.2266 5.36606 15.5339V18.0968H0V19.209H5.92329C6.23115 19.209 6.48051 18.9601 6.48051 18.6529Z" fill="#794925"/>
<path d="M12.8712 24.2451C12.1879 24.2451 11.6056 24.6747 11.3792 25.2781H6.48051V23.477C6.48051 23.1698 6.23115 22.9209 5.92329 22.9209H0V24.0331H5.36606V25.8342C5.36606 26.1414 5.61542 26.3903 5.92329 26.3903H11.3792C11.6049 26.9936 12.1879 27.4232 12.8712 27.4232C13.7502 27.4232 14.4634 26.7114 14.4634 25.8342C14.4634 24.9569 13.7509 24.2451 12.8712 24.2451Z" fill="#794925"/>
<path d="M12.8712 19.2285C12.1879 19.2285 11.6056 19.6581 11.3792 20.2615H0V21.3737H11.3799C11.6056 21.977 12.1886 22.4066 12.8719 22.4066C13.7509 22.4066 14.4641 21.6948 14.4641 20.8176C14.4634 19.9396 13.7509 19.2285 12.8712 19.2285Z" fill="#794925"/>
<path d="M17.8428 20.3401C17.8428 22.1926 19.348 23.6947 21.2042 23.6947H26.183C27.7384 23.6947 28.9991 22.4365 28.9991 20.8843V15.5347C28.9991 16.3361 28.3485 16.9854 27.5454 16.9854H21.2042C19.348 16.9854 17.8428 18.4869 17.8428 20.3401Z" fill="#794925"/>
<path d="M21.1921 21.4196C21.7968 21.4196 22.2871 20.9304 22.2871 20.3269C22.2871 19.7234 21.7968 19.2341 21.1921 19.2341C20.5874 19.2341 20.0972 19.7234 20.0972 20.3269C20.0972 20.9304 20.5874 21.4196 21.1921 21.4196Z" fill="#F8A328"/>
<path opacity="0.15" d="M24.6871 29.6692C23.7057 31.0775 22.0723 31.9993 20.2237 31.9993H5.43293C2.43228 31.9993 0 29.5719 0 26.5773V8.20801C0 8.80859 0.243785 9.35288 0.638717 9.74701C0.811457 9.9194 1.01275 10.0633 1.23564 10.1696V26.2645C1.23564 28.7308 3.23886 30.73 5.71015 30.73H21.4587C22.6679 30.73 23.7844 30.3359 24.6871 29.6692Z" fill="black"/>
<path opacity="0.1" d="M28.9998 15.5339V20.8836C28.9998 22.4358 27.7384 23.6947 26.1831 23.6947H21.2043C20.0884 23.6947 19.0993 23.1518 18.4878 22.3156C19.0325 22.6965 19.697 22.9203 20.4137 22.9203H25.8536C27.1547 22.9203 28.2093 21.8679 28.2093 20.5694V16.8248C28.3444 16.756 28.467 16.6663 28.5735 16.5599C28.8368 16.2972 28.9998 15.935 28.9998 15.5339Z" fill="black"/>
</svg>
