<svg width="44" height="30" viewBox="0 0 44 30" fill="none" xmlns="http://www.w3.org/2000/svg">
<path d="M0.113871 20.1941C0.0228631 19.9835 0.0749861 19.7613 0.0733314 19.5457C0.0600938 17.5277 0.0526477 15.5105 0.0452015 13.4925C0.0443742 13.3446 0.00879823 13.1902 0.0989792 13.0522C0.174268 12.9729 0.275204 12.9836 0.368695 12.9779C3.38686 12.8036 5.78534 10.5881 6.24948 7.60119C6.29664 7.29969 6.39179 6.98497 6.22632 6.68429C9.6474 6.67603 13.0685 6.6686 16.4896 6.65621C16.6526 6.65538 16.8147 6.61408 16.9777 6.59178C17.1382 6.71155 17.3244 6.65951 17.4981 6.65868C18.7342 6.65621 19.9702 6.64216 21.2063 6.63638C24.4619 6.62234 27.7175 6.60664 30.9731 6.60582C31.3214 6.60582 31.6838 6.51661 32.023 6.68099C31.9941 7.27739 32.1082 7.85396 32.282 8.41897C32.8156 10.1479 33.9549 11.3712 35.5103 12.2427C35.5202 14.9339 35.531 17.6251 35.5401 20.3164C35.5409 20.4527 35.507 20.5947 35.6526 20.6848C35.5997 20.7269 35.5508 20.7781 35.4921 20.8103C33.9466 21.6347 32.9224 22.8936 32.3631 24.5424C31.8989 24.473 31.434 24.5292 30.969 24.5308C26.9588 24.544 22.9487 24.5572 18.9385 24.568C16.411 24.5746 13.8843 24.5754 11.3567 24.5795C9.61348 24.582 7.86943 24.5837 6.12621 24.5862C6.07822 24.473 6.02858 24.3606 5.98391 24.2458C5.32947 22.5954 4.15712 21.4456 2.54876 20.7261C1.77519 20.3792 0.944529 20.285 0.113871 20.1941ZM25.6309 20.8351C27.993 17.4376 27.1086 12.531 23.5204 10.1462C19.9346 7.76227 15.1311 8.69321 12.7698 12.232C10.3697 15.8285 11.3286 20.5766 14.9044 22.9861C18.4644 25.3841 23.4004 24.3425 25.6309 20.8351ZM8.03076 16.942C8.30213 16.5067 8.00264 15.9599 7.48223 15.9532C6.29913 15.9384 5.11519 15.9458 3.93208 15.9582C3.50517 15.9632 3.25448 16.2085 3.24704 16.5744C3.23877 16.9544 3.50683 17.2295 3.93705 17.232C5.12015 17.2394 6.30326 17.2295 7.4872 17.2287C7.72961 17.2278 7.89508 17.0915 8.03076 16.942ZM30.6083 17.0477C30.6951 17.1262 30.8424 17.1551 30.9971 17.1551C32.1256 17.1527 33.255 17.1584 34.3835 17.1427C34.8716 17.1361 35.1868 16.852 35.1769 16.4836C35.167 16.116 34.8344 15.8574 34.3512 15.8583C33.25 15.8599 32.1488 15.8673 31.0476 15.8748C30.9516 15.8756 30.8556 15.8896 30.7613 15.9086C30.48 15.9665 30.3493 16.1721 30.2947 16.4266C30.2401 16.6843 30.3576 16.8809 30.6083 17.0477Z" fill="#80CCA0"/>
<path d="M32.0224 6.68099C31.6832 6.51661 31.3208 6.60582 30.9725 6.60582C27.7169 6.60747 24.4612 6.62317 21.2056 6.63639C19.9696 6.64134 18.7335 6.65621 17.4975 6.65869C17.3237 6.65869 17.1376 6.71156 16.9771 6.59178C19.3954 5.79052 21.8121 4.98596 24.2312 4.18719C28.3374 2.83166 32.4452 1.47944 36.5521 0.125566C37.5863 -0.215587 38.3077 0.139609 38.6511 1.1705C40.3976 6.41666 42.1442 11.6628 43.8882 16.9098C44.2001 17.8482 43.8419 18.5891 42.9086 18.8972C41.4194 19.3896 39.9244 19.8654 38.4318 20.3478C38.3243 20.2924 38.3814 20.1726 38.3317 20.0942C38.4856 19.6093 38.3706 19.117 38.3714 18.628C38.3739 16.8363 38.3673 15.0446 38.3673 13.2529C38.3673 13.1133 38.3872 12.9762 38.2515 12.8829C38.3375 12.7623 38.3251 12.6235 38.3251 12.4855C38.3218 11.0846 38.3218 9.68446 38.3152 8.2835C38.3102 7.16753 37.698 6.57526 36.5935 6.59343C35.6859 6.6083 34.7783 6.59921 33.8715 6.62234C33.256 6.63886 32.6354 6.55213 32.0224 6.68099Z" fill="#57AD7B"/>
<path d="M6.12646 24.5845C7.86969 24.582 9.61374 24.5804 11.357 24.5779C13.8845 24.5746 16.4112 24.573 18.9388 24.5663C22.9489 24.5556 26.9591 24.5424 30.9692 24.5292C31.4342 24.5275 31.8992 24.4705 32.3633 24.5407C32.2194 25.1545 32.0291 25.7641 32.1499 26.4076C29.0026 26.4225 25.8554 26.4365 22.7082 26.4505C21.9379 26.4538 21.1685 26.4596 20.3982 26.4547C20.1484 26.453 19.9068 26.491 19.6644 26.5373C19.5477 26.4282 19.4013 26.472 19.2689 26.4712C17.5554 26.4679 15.8428 26.4662 14.1294 26.472C11.8401 26.4803 9.55086 26.4951 7.26241 26.51C7.10356 26.5108 6.93313 26.4555 6.79083 26.5794C6.6601 26.4538 6.49132 26.529 6.34323 26.4951C6.43341 26.344 6.39949 26.1821 6.39204 26.0193C6.36971 25.5287 6.25388 25.0562 6.12646 24.5845Z" fill="#60BE88"/>
<path d="M32.15 26.4084C32.0284 25.7641 32.2195 25.1553 32.3635 24.5416C32.9219 22.8928 33.9462 21.6339 35.4917 20.8095C35.5504 20.7781 35.5992 20.7269 35.6522 20.684C36.5226 20.38 37.3971 20.095 38.3336 20.0942C38.3833 20.1718 38.3262 20.2924 38.4337 20.3478C38.3295 20.7946 38.3982 21.2473 38.394 21.6967C38.3849 22.7259 38.4015 23.7543 38.4031 24.7836C38.4039 25.8046 37.8182 26.4084 36.8047 26.4125C35.2534 26.4183 33.7021 26.4109 32.15 26.4084Z" fill="#2A795D"/>
<path d="M6.22735 6.68512C6.39365 6.98663 6.29768 7.30135 6.25052 7.60202C5.78638 10.5881 3.38789 12.8044 0.369731 12.9787C0.276241 12.9845 0.174477 12.9737 0.100016 13.053C-0.0753816 12.6706 0.035483 12.2691 0.0305189 11.8776C0.0156266 10.6765 0.0156266 9.47465 0.0147993 8.27276C0.0131446 7.3063 0.540165 6.69338 1.48086 6.67769C3.06275 6.65043 4.64546 6.67934 6.22735 6.68512Z" fill="#2A795D"/>
<path d="M6.12629 24.5845C6.25371 25.0562 6.36953 25.5287 6.3927 26.0202C6.40015 26.1829 6.43489 26.3448 6.34389 26.496C4.73966 26.5017 3.1346 26.5199 1.53038 26.5075C0.719576 26.5009 0.10072 25.9103 0.0874821 25.1156C0.0601796 23.5264 0.0709351 21.9371 0.0684531 20.3478C0.0684531 20.2966 0.0982376 20.2453 0.114785 20.1941C0.944614 20.285 1.7761 20.3783 2.54801 20.7244C4.15721 21.4447 5.32873 22.5938 5.98316 24.2442C6.02867 24.359 6.07831 24.4713 6.12629 24.5845Z" fill="#2A795D"/>
<path d="M6.7915 26.5811C6.93381 26.4572 7.10341 26.5125 7.26309 26.5117C9.55236 26.4976 11.8416 26.4819 14.1301 26.4737C15.8435 26.4679 17.5561 26.4695 19.2696 26.4728C19.4019 26.4728 19.5484 26.4291 19.665 26.5389C18.1262 27.0527 16.589 27.569 15.0493 28.0787C13.2084 28.6883 11.3676 29.2979 9.52341 29.8967C8.60257 30.1958 7.87533 29.8364 7.56176 28.9295C7.29205 28.1505 7.04715 27.3641 6.7915 26.5811Z" fill="#57AD7B"/>
<path d="M23.5215 10.1462C19.9358 7.76227 15.1322 8.69321 12.771 12.232C10.3708 15.8285 11.3297 20.5766 14.9055 22.9861C18.4648 25.3849 23.4007 24.3433 25.6313 20.8351C27.9934 17.4376 27.1089 12.531 23.5215 10.1462Z" fill="#29795D"/>
<path d="M32.0226 6.681C32.6356 6.55213 33.2561 6.63887 33.8725 6.62317C34.7793 6.59922 35.6869 6.60913 36.5945 6.59426C37.699 6.57609 38.3112 7.16836 38.3162 8.28433C38.3228 9.68529 38.3228 11.0854 38.3261 12.4864C38.3261 12.6235 38.3394 12.7623 38.2525 12.8837C37.3002 12.8333 36.3868 12.6136 35.509 12.2427C33.9536 11.3712 32.8135 10.1487 32.2807 8.41898C32.1078 7.85397 31.9936 7.27739 32.0226 6.681Z" fill="#29795D"/>
<path d="M35.5107 12.2427C36.3886 12.6136 37.3011 12.8333 38.2542 12.8837C38.3907 12.977 38.37 13.1142 38.37 13.2538C38.37 15.0454 38.3758 16.8371 38.3742 18.6288C38.3734 19.1178 38.4883 19.6101 38.3345 20.095C37.3971 20.0958 36.5234 20.3808 35.653 20.6856C35.5074 20.5956 35.5414 20.4527 35.5405 20.3172C35.5314 17.6243 35.5207 14.9339 35.5107 12.2427Z" fill="#60BE88"/>
<path d="M8.03083 16.942C7.89514 17.0915 7.72967 17.227 7.48643 17.2278C6.30333 17.2295 5.11939 17.2386 3.93629 17.2311C3.50689 17.2287 3.23801 16.9536 3.24628 16.5736C3.25455 16.2077 3.50524 15.9623 3.93132 15.9574C5.11443 15.9442 6.29836 15.9367 7.48147 15.9524C8.0027 15.9598 8.3022 16.5075 8.03083 16.942Z" fill="#2A795D"/>
<path d="M30.6085 17.0478C30.3578 16.8801 30.2403 16.6843 30.2957 16.4274C30.3503 16.173 30.481 15.9673 30.7623 15.9095C30.8558 15.8905 30.9526 15.8764 31.0486 15.8756C32.1498 15.8682 33.251 15.8607 34.3522 15.8591C34.8354 15.8582 35.168 16.116 35.1779 16.4844C35.1878 16.852 34.8726 17.137 34.3845 17.1436C33.256 17.1593 32.1266 17.1535 30.9981 17.156C30.8426 17.156 30.6953 17.1271 30.6085 17.0478Z" fill="#2A795D"/>
<path d="M20.8964 20.0297H17.7698C17.5464 20.0297 17.3652 19.8488 17.3652 19.6258C17.3652 19.4028 17.5464 19.2219 17.7698 19.2219H20.8964C21.1197 19.2219 21.3009 19.4028 21.3009 19.6258C21.3009 19.8488 21.1197 20.0297 20.8964 20.0297Z" fill="#A5E5BF"/>
<path d="M19.3333 17.3129C19.6105 17.3129 19.8405 17.2328 20.0233 17.0709C20.1226 16.9833 20.1971 16.8842 20.2459 16.7743C20.327 16.5918 20.5057 16.4736 20.7059 16.4736C21.089 16.4736 21.3363 16.8875 21.1461 17.2187C21.1237 17.2576 21.1005 17.2956 21.0749 17.3336C20.8954 17.5995 20.6513 17.8102 20.3444 17.9655C20.0366 18.1208 19.7048 18.1984 19.3482 18.1984C18.6566 18.1984 18.1089 17.9746 17.7035 17.5277C17.2981 17.0808 17.0962 16.4637 17.0962 15.6757V15.5617C17.0962 14.8108 17.2972 14.2095 17.6993 13.7576C18.1014 13.3058 18.6491 13.0803 19.3441 13.0803C19.9315 13.0803 20.4105 13.2513 20.7804 13.5933C20.9773 13.7758 21.1245 13.9881 21.2222 14.2318C21.3579 14.5713 21.1055 14.9414 20.739 14.9414C20.5222 14.9414 20.3262 14.8075 20.2533 14.6035C20.2054 14.4672 20.1292 14.3474 20.0267 14.2442C19.8455 14.0616 19.6146 13.9708 19.335 13.9708C18.9759 13.9708 18.6988 14.1004 18.5035 14.3606C18.3083 14.6209 18.2098 15.0149 18.2065 15.5444V15.722C18.2065 16.2572 18.3033 16.6562 18.4969 16.9189C18.688 17.1816 18.9676 17.3129 19.3333 17.3129Z" fill="#A5E5BF"/>
</svg>
