<svg width="38" height="30" viewBox="0 0 38 30" fill="none" xmlns="http://www.w3.org/2000/svg">
<path d="M36.1967 19.6574L9.54906 29.8103C8.09386 30.3645 6.45444 29.66 5.88803 28.2361L4.80613 25.517L0.193283 13.9251C-0.373121 12.5011 0.34761 10.8969 1.80281 10.3426L28.4505 0.188984C29.9065 -0.365269 31.5451 0.34 32.1123 1.76398L36.7195 13.3424L37.8063 16.0741C38.3727 17.4989 37.6527 19.1024 36.1967 19.6574Z" fill="#DE4A3A"/>
<path d="M36.7195 13.3424C36.6274 13.3875 36.5329 13.4286 36.4351 13.4657L4.80613 25.517L0.193283 13.9251C-0.373121 12.5011 0.34761 10.8969 1.80281 10.3426L28.4505 0.188984C29.9065 -0.365269 31.5451 0.34 32.1123 1.76398L36.7195 13.3424Z" fill="#78472E"/>
<path d="M34.2525 2.76731V18.1243C34.2525 19.6526 32.9864 20.8916 31.4245 20.8916H2.82798C1.26613 20.8916 0 19.6526 0 18.1243V2.76731C0 1.23896 1.26613 0 2.82798 0H31.4245C32.9864 0 34.2525 1.23896 34.2525 2.76731Z" fill="#4297CF"/>
<path d="M34.2528 2.76731V18.1243C34.2528 19.6526 32.9866 20.8916 31.4248 20.8916H7.03223L28.3819 0H31.4248C32.9866 0 34.2528 1.23896 34.2528 2.76731Z" fill="#3D8AC7"/>
<path d="M8.61093 3.56192V7.59824C8.61093 8.03468 8.24894 8.3889 7.80293 8.3889H3.67811C3.2321 8.3889 2.87012 8.03468 2.87012 7.59824V3.56192C2.87012 3.12468 3.2321 2.77126 3.67811 2.77126H7.80293C8.24894 2.77126 8.61093 3.12468 8.61093 3.56192Z" fill="#FDB52E"/>
<path d="M5.00646 4.85387H2.87012V6.30551H5.00646V4.85387Z" fill="#FD7A2E"/>
<path d="M8.61112 4.85387H6.47559V6.30551H8.61112V4.85387Z" fill="#FD7A2E"/>
<path d="M5.74011 11.1412H2.87012V12.5501H5.74011V11.1412Z" fill="#5CB3CF"/>
<path d="M10.0458 11.1412H7.17578V12.5501H10.0458V11.1412Z" fill="#5CB3CF"/>
<path d="M14.3519 11.1412H11.4819V12.5501H14.3519V11.1412Z" fill="#5CB3CF"/>
<path d="M18.6566 11.1412H15.7866V12.5501H18.6566V11.1412Z" fill="#5CB3CF"/>
<path d="M5.74011 15.3088H2.87012V16.7177H5.74011V15.3088Z" fill="#5CB3CF"/>
<path d="M18.6566 15.3088H15.7866V16.7177H18.6566V15.3088Z" fill="#5CB3CF"/>
<path d="M22.0996 2.77126H20.6978V4.85386H22.0996V2.77126Z" fill="#5CB3CF"/>
<path d="M24.9414 2.77126H23.5396V4.85386H24.9414V2.77126Z" fill="#5CB3CF"/>
<path d="M27.7823 2.77126H26.3804V4.85386H27.7823V2.77126Z" fill="#5CB3CF"/>
<path d="M30.624 2.77126H29.2222V4.85386H30.624V2.77126Z" fill="#5CB3CF"/>
</svg>
