<svg width="46" height="33" viewBox="0 0 46 33" fill="none" xmlns="http://www.w3.org/2000/svg">
<g clip-path="url(#clip0_1472_6130)">
<path d="M37.8466 1.38106C37.8457 6.18997 37.8448 13.5621 37.8439 17.7913C37.6552 17.7192 37.5528 17.5486 37.4081 17.4263C37.143 17.2029 36.9597 16.8721 36.568 16.8167C35.9642 16.4218 35.0333 16.6786 34.6011 17.2029C34.1159 17.7922 34.0917 18.7185 34.5822 19.2243C35.0046 19.6597 35.4493 20.074 35.8788 20.5032C36.0109 20.6361 36.1951 20.7363 36.2122 20.9536C33.9371 20.9554 31.662 20.958 29.387 20.9598C29.0285 20.9571 28.6681 20.9378 28.3105 20.9554C27.4911 20.9958 26.7103 21.7286 26.7561 22.5193C26.7956 23.1914 27.1847 23.5617 27.7499 23.9417C27.3833 23.9417 27.1029 23.9364 26.8226 23.9426C25.951 23.9619 25.1549 24.7026 25.2358 25.5945C25.3086 26.3985 25.9492 27.0133 26.8558 27.0186C27.1281 27.0204 27.4012 27.0186 27.775 27.0186C27.527 27.1734 27.3797 27.2658 27.2314 27.3582C24.2681 27.359 21.3047 27.3599 18.3414 27.3608C18.3019 27.2183 18.3063 27.2332 18.2668 27.0907C18.5786 26.9271 18.9164 27.0371 19.2399 27.023C20.0549 26.9878 20.709 26.3897 20.7521 25.6086C20.7602 24.5873 20.1879 24.0253 19.1375 24.0226C18.841 24.0217 18.5436 24.0191 18.247 24.0173C18.2515 23.8458 18.4142 23.8353 18.5166 23.7596C18.9057 23.4711 19.2426 23.1491 19.2246 22.6179C19.2336 21.6019 18.5606 20.958 17.4671 20.9554C15.21 20.9501 12.952 20.9518 10.6949 20.951C10.6518 20.6572 10.7929 20.3449 10.6006 20.0669C10.8153 19.8453 11.0283 19.6219 11.2457 19.4028C11.9484 18.6965 11.9439 17.7984 11.2322 17.078C11.0849 16.8458 10.8117 16.7903 10.6006 16.6478C10.7641 16.4895 10.6904 16.2872 10.6913 16.106C10.6958 11.1783 10.7021 6.25067 10.685 1.32301C10.6832 0.758287 10.8405 0.32991 11.323 0.0229207C14.1713 0.0255596 17.0188 0.0290781 19.8671 0.0317169C19.8671 2.43485 19.8662 4.83799 19.8662 7.24025C19.8662 7.34316 19.8581 7.44696 19.8752 7.54724C19.9533 7.9976 20.3172 8.14626 20.6892 7.8683C21.2472 7.45135 21.7998 7.02738 22.3443 6.59372C22.9122 6.14159 23.0586 6.13104 23.6238 6.56557C24.1872 6.99923 24.7443 7.44168 25.3139 7.8683C25.6859 8.14714 26.0498 7.99848 26.128 7.54724C26.1451 7.44696 26.137 7.34228 26.137 7.24025C26.137 4.83711 26.137 2.43397 26.1361 0.0317169C26.5584 0.0281984 26.9807 0.0246799 27.403 0.0211614L36.4359 0.0026893C37.2149 0.000930046 37.8466 0.618427 37.8466 1.38106ZM14.1066 16.3074C14.1066 16.7024 14.1165 17.0982 14.1039 17.4923C14.0923 17.8749 14.2513 18.0658 14.6574 18.0579C15.1651 18.0473 15.6737 18.05 16.1822 18.057C16.5596 18.0623 16.7258 17.8899 16.7204 17.5222C16.7124 16.9082 16.7186 16.2934 16.7186 15.6785C16.7186 14.798 16.7186 14.798 17.5965 14.7918C17.6567 14.7918 17.716 14.7892 17.7762 14.7918C18.0107 14.8015 18.185 14.7003 18.2839 14.498C18.3926 14.2772 18.2803 14.096 18.1239 13.9483C17.3916 13.2586 16.6575 12.5717 15.9172 11.8908C15.7312 11.7193 15.4868 11.6181 15.2693 11.802C14.4103 12.5268 13.5657 13.2692 12.7184 14.0072C12.5666 14.1391 12.5477 14.3124 12.6115 14.491C12.678 14.6748 12.8262 14.7742 13.0203 14.7839C13.2737 14.7971 13.5289 14.8041 13.7823 14.7883C14.0419 14.7725 14.121 14.8798 14.112 15.1217C14.095 15.5166 14.1057 15.9125 14.1066 16.3074Z" fill="#E0AD85"/>
<path d="M36.5684 16.8157C36.9602 16.8711 37.1435 17.2018 37.4085 17.4253C37.5532 17.5475 37.6556 17.7182 37.8443 17.7903C38.3655 18.4359 39.007 18.9672 39.5884 19.5557C40.0772 20.0509 40.5785 20.5347 41.0799 21.0176C41.7664 21.6782 42.5849 22.0275 43.5545 22.111C44.1673 22.1638 44.7765 22.1656 45.3883 22.1752C45.8915 22.1831 45.9967 22.2861 45.9975 22.8174C46.0002 24.4737 45.9984 26.1291 45.9984 27.7855C45.9984 29.3099 46.0002 30.8334 45.9975 32.3578C45.9967 32.8152 45.8349 32.9955 45.4018 32.9955C40.5965 32.9955 35.7912 32.9911 30.985 32.9876C30.9347 32.9594 30.887 32.926 30.8331 32.9049C30.1035 32.612 29.6444 31.947 29.7702 31.362C29.9696 30.4358 30.4863 30.0092 31.4145 30.0074C31.9832 30.0065 32.552 30.0153 33.1208 30.0048C33.6437 29.9942 33.9196 29.6837 33.8719 29.1885C33.8369 28.8278 33.5395 28.6044 33.0633 28.6035C31.6113 28.6 30.1592 28.5939 28.7072 28.6079C28.3128 28.6114 28.2445 28.4751 28.355 28.132C28.5886 27.4011 29.09 27.0184 29.8717 27.0176C30.949 27.0158 32.0273 27.0228 33.1046 27.014C33.6338 27.0096 33.9115 26.7071 33.871 26.2136C33.8405 25.8309 33.5458 25.6137 33.0327 25.6128C31.1018 25.6102 29.1709 25.6128 27.2399 25.611C26.7296 25.611 26.6927 25.5565 26.8527 25.0745C27.089 24.3611 27.5517 24.0277 28.3173 24.0268C29.8888 24.0251 31.4603 24.0321 33.0318 24.0224C33.6105 24.0189 33.8836 23.7612 33.871 23.2862C33.8594 22.8473 33.5727 22.623 33.0076 22.6221C31.7056 22.6203 30.4027 22.6282 29.1008 22.615C28.8447 22.6124 28.4844 22.7637 28.3496 22.5165C28.1861 22.2157 28.4422 21.9043 28.5913 21.6228C28.7135 21.3924 28.9525 21.2771 29.1709 21.1522C29.2607 21.1003 29.3694 21.0854 29.3838 20.9596C31.6589 20.9578 33.9339 20.9552 36.209 20.9534C36.7221 20.9534 37.2351 20.9534 37.8722 20.9534C37.3672 20.46 36.9781 20.0351 36.5415 19.6639C35.6178 18.8766 35.4516 17.7718 36.4911 16.9256C36.528 16.8984 36.5451 16.8526 36.5684 16.8157Z" fill="#FDCDBF"/>
<path d="M18.2444 27.103C18.4214 27.1893 18.5993 27.2746 18.7763 27.3608C19.027 27.7417 19.2813 28.1208 19.2157 28.6081C17.1419 28.6063 15.0672 28.6037 12.9925 28.6037C12.4111 28.6037 12.129 28.8394 12.1299 29.3091C12.1308 29.778 12.4111 30.0058 13.0006 30.0076C14.2387 30.0102 15.4778 30.0093 16.716 30.0102C16.884 30.1281 17.0646 30.2328 17.2164 30.3673C17.7771 30.8634 17.9164 31.3622 17.6819 31.9744C17.4456 32.5919 16.8876 32.9807 16.202 32.9965C15.8732 33.0036 15.5434 32.9983 15.2145 32.9983C10.9214 32.9965 6.62733 32.9939 2.33418 32.9921C2.11763 32.7458 2.06552 32.4608 2.06642 32.138C2.0754 29.1367 2.0745 26.1355 2.06821 23.1342C2.06732 22.7947 2.06732 22.4648 2.26679 22.1692C2.40426 22.0786 2.55701 22.0901 2.71066 22.105C3.0503 22.2678 3.41151 22.1684 3.76104 22.1754C5.1825 22.2035 6.39282 21.7488 7.39287 20.7196C8.50255 19.577 9.66255 18.4827 10.8037 17.37C10.9268 17.2495 11.0247 17.0859 11.2314 17.0789C11.943 17.7993 11.9466 18.6974 11.2449 19.4037C11.0274 19.6227 10.8145 19.8462 10.5997 20.0678C10.3131 20.3396 10.0265 20.6114 9.66704 20.9518C10.1001 20.9518 10.3966 20.9518 10.6932 20.9518C12.9503 20.9527 15.2082 20.951 17.4653 20.9562C18.5579 20.9589 19.2318 21.6019 19.2229 22.6187C17.1616 22.6196 15.1013 22.6205 13.0401 22.6222C12.4066 22.6231 12.1281 22.8395 12.129 23.3251C12.129 23.7834 12.4129 24.0235 13.0042 24.0244C14.7518 24.0279 16.4985 24.0208 18.2462 24.0173C18.5427 24.0191 18.8401 24.0217 19.1366 24.0226C20.187 24.0252 20.7593 24.5873 20.7512 25.6086C18.194 25.6094 15.6359 25.6103 13.0787 25.6121C12.403 25.6121 12.1263 25.8206 12.129 26.3237C12.1326 26.8137 12.4147 27.0168 13.0976 27.0168C14.6233 27.0177 16.149 27.0177 17.6747 27.0168C17.8706 27.0168 18.0656 27.0045 18.2444 27.103Z" fill="#FDCDBF"/>
<path d="M26.1371 0.0316665C26.1371 2.4348 26.1379 4.83794 26.1379 7.24019C26.1379 7.34311 26.146 7.4469 26.129 7.54718C26.0499 7.99843 25.6869 8.1462 25.3149 7.86824C24.7452 7.44163 24.1882 7.00005 23.6248 6.56552C23.0605 6.13098 22.914 6.14154 22.3453 6.59367C21.8008 7.02732 21.2482 7.4513 20.6902 7.86824C20.3182 8.1462 19.9543 7.99755 19.8761 7.54718C19.8591 7.4469 19.8671 7.34223 19.8671 7.24019C19.8671 4.83706 19.8671 2.43392 19.868 0.0316665C21.9571 -0.0105555 24.0471 -0.0105555 26.1371 0.0316665Z" fill="#D94857"/>
<path d="M11.3243 0.0228714C10.8409 0.329861 10.6845 0.758238 10.6863 1.32296C10.7034 6.25062 10.6971 11.1783 10.6926 16.1059C10.6926 16.2871 10.7654 16.4895 10.6019 16.6478C9.76445 16.5229 9.09595 16.7991 8.56582 17.443C8.4517 17.5819 8.34118 17.7588 8.12105 17.7772C8.11655 16.8844 8.10757 15.9907 8.10757 15.0979C8.10577 10.4992 8.10667 5.9014 8.10667 1.30273C8.10667 0.281481 8.38791 0.0070382 9.44008 0.00879745C10.0682 0.00967708 10.6962 0.0175937 11.3243 0.0228714Z" fill="#D19B74"/>
<path d="M29.3879 20.9598C29.3736 21.0856 29.2648 21.1005 29.175 21.1524C28.9575 21.2773 28.7176 21.3926 28.5954 21.623C28.4463 21.9045 28.1902 22.2159 28.3537 22.5167C28.4876 22.7639 28.8488 22.6135 29.1049 22.6152C30.4069 22.6284 31.7097 22.6196 33.0117 22.6223C33.5768 22.6232 33.8635 22.8475 33.8752 23.2864C33.8877 23.7614 33.6146 24.0191 33.0359 24.0226C31.4644 24.0323 29.8929 24.0253 28.3214 24.027C27.5558 24.0279 27.0931 24.3622 26.8568 25.0747C26.6968 25.5567 26.7346 25.6104 27.2441 25.6112C29.175 25.6121 31.1059 25.6104 33.0368 25.613C33.549 25.6139 33.8437 25.8303 33.8752 26.2138C33.9147 26.7073 33.637 27.0107 33.1087 27.0142C32.0314 27.023 30.9532 27.016 29.8758 27.0178C29.0941 27.0186 28.5927 27.4013 28.3591 28.1323C28.2495 28.4762 28.3178 28.6125 28.7113 28.6081C30.1634 28.5941 31.6154 28.6002 33.0674 28.6037C33.5436 28.6046 33.841 28.828 33.876 29.1887C33.9237 29.6839 33.6478 29.9944 33.1249 30.005C32.5561 30.0164 31.9874 30.0067 31.4186 30.0076C30.4904 30.0094 29.9738 30.4351 29.7743 31.3622C29.6485 31.9472 30.1076 32.6122 30.8372 32.9051C30.8903 32.9262 30.9388 32.9596 30.9891 32.9878C30.6144 32.9913 30.2406 32.9983 29.8668 32.9975C29.0537 32.9957 28.4633 32.5726 28.2612 31.8504C28.0761 31.1898 28.4013 30.5275 29.1022 30.1369C29.1381 30.1167 29.1696 30.0894 29.2801 30.0103C28.4463 30.0015 27.6502 30.1202 27.0931 29.4103C26.6474 28.843 26.6735 28.1674 27.2351 27.3582C27.3833 27.2658 27.5307 27.1735 27.7787 27.0186C27.404 27.0186 27.1317 27.0204 26.8595 27.0186C25.9529 27.0134 25.3113 26.3985 25.2394 25.5945C25.1595 24.7026 25.9547 23.9619 26.8262 23.9426C27.1066 23.9364 27.3869 23.9417 27.7535 23.9417C27.1883 23.5617 26.7993 23.1914 26.7597 22.5194C26.713 21.7286 27.4947 20.9958 28.3142 20.9554C28.6691 20.9369 29.0285 20.9563 29.3879 20.9598Z" fill="#FDAFA0"/>
<path d="M2.26878 22.1682C2.06931 22.4638 2.06931 22.7945 2.07021 23.1332C2.0756 26.1345 2.0774 29.1357 2.06841 32.137C2.06751 32.4598 2.11963 32.744 2.33617 32.9911C1.76831 32.9929 1.19954 32.9999 0.631671 32.9964C0.15096 32.9938 0.00809495 32.8618 0.00719643 32.4036C0.00360232 29.1692 0.009892 25.9348 8.22444e-06 22.7004C-0.00178883 22.2325 0.29113 22.1163 0.659526 22.1119C1.19595 22.1058 1.73236 22.1471 2.26878 22.1682Z" fill="#FDAFA0"/>
<path d="M8.12111 17.7773C8.34125 17.7589 8.45177 17.5821 8.56588 17.4431C9.09601 16.8001 9.76452 16.523 10.6019 16.6479C10.8131 16.7913 11.0862 16.8458 11.2336 17.078C11.0269 17.0851 10.929 17.2487 10.8059 17.3692C9.66478 18.4819 8.50389 19.5762 7.3951 20.7188C6.39595 21.748 5.18473 22.2027 3.76327 22.1746C3.41374 22.1675 3.05253 22.2669 2.71289 22.1042C3.81898 21.9081 4.68066 21.3231 5.43812 20.5306C6.20366 19.7292 7.01862 18.9727 7.81112 18.1952C7.93602 18.072 8.08337 17.9638 8.12111 17.7773Z" fill="#FDAFA0"/>
<path d="M16.7169 30.01C15.4788 30.0092 14.2397 30.01 13.0015 30.0074C12.413 30.0056 12.1327 29.7778 12.1309 29.309C12.13 28.8393 12.4121 28.6035 12.9934 28.6035C15.0681 28.6035 17.1419 28.6062 19.2166 28.6079C19.1726 29.3688 18.5302 29.9801 17.7386 30.0039C17.398 30.0144 17.0575 30.0083 16.7169 30.01Z" fill="#FDAFA0"/>
<path d="M14.106 16.3073C14.106 15.9124 14.0952 15.5165 14.1096 15.1225C14.1186 14.8806 14.0404 14.7733 13.7798 14.7891C13.5265 14.804 13.2713 14.797 13.0179 14.7847C12.8238 14.775 12.6756 14.6756 12.6091 14.4918C12.5444 14.3141 12.5641 14.1399 12.716 14.008C13.5633 13.27 14.4079 12.5276 15.2669 11.8028C15.4843 11.6189 15.7287 11.7209 15.9147 11.8916C16.6551 12.5724 17.3892 13.2594 18.1215 13.949C18.2779 14.0968 18.3902 14.278 18.2815 14.4988C18.1826 14.7002 18.0083 14.8023 17.7738 14.7926C17.7145 14.79 17.6543 14.7926 17.5941 14.7926C16.7162 14.7988 16.7162 14.7988 16.7162 15.6793C16.7162 16.2941 16.7099 16.9081 16.718 17.523C16.7234 17.8898 16.5572 18.0631 16.1798 18.0578C15.6721 18.0507 15.1636 18.0481 14.655 18.0587C14.2489 18.0666 14.0898 17.8757 14.1015 17.4931C14.1159 17.0981 14.1069 16.7023 14.106 16.3073Z" fill="#F7F9FA"/>
<path d="M18.2444 27.1029C18.0656 27.0052 17.8706 27.0167 17.6756 27.0167C16.1499 27.0176 14.6242 27.0176 13.0985 27.0167C12.4156 27.0167 12.1335 26.8135 12.1299 26.3235C12.1263 25.8204 12.4031 25.6119 13.0797 25.6119C15.6369 25.6102 18.195 25.6093 20.7522 25.6084C20.709 26.3895 20.0549 26.9876 19.239 27.0228C18.9084 27.0369 18.5625 26.9208 18.2444 27.1029Z" fill="#FDAFA0"/>
<path d="M18.248 24.0173C16.5004 24.0199 14.7537 24.0278 13.006 24.0243C12.4148 24.0234 12.1309 23.7833 12.1309 23.325C12.1309 22.8394 12.4094 22.623 13.042 22.6222C15.1032 22.6204 17.1644 22.6195 19.2247 22.6187C19.2427 23.1499 18.9057 23.4719 18.5167 23.7604C18.4151 23.8352 18.2525 23.8457 18.248 24.0173Z" fill="#FDAFA0"/>
<path d="M36.5684 16.8158C36.5441 16.8527 36.528 16.8984 36.4956 16.9248C35.456 17.7702 35.6223 18.875 36.5459 19.6631C36.9817 20.0352 37.3708 20.4592 37.8767 20.9526C37.2396 20.9526 36.7266 20.9526 36.2135 20.9526C36.1973 20.7363 36.0122 20.6351 35.8801 20.5023C35.4515 20.073 35.0059 19.6587 34.5836 19.2233C34.093 18.7175 34.1163 17.7913 34.6024 17.2019C35.0337 16.6785 35.9655 16.4208 36.5684 16.8158Z" fill="#FDAFA0"/>
<path d="M10.696 20.9509C10.3995 20.9509 10.103 20.9509 9.66992 20.9509C10.0293 20.6105 10.316 20.3387 10.6026 20.0669C10.7931 20.3457 10.6529 20.658 10.696 20.9509Z" fill="#D19B74"/>
</g>
<defs>
<clipPath id="clip0_1472_6130">
<rect width="46" height="33" fill="white"/>
</clipPath>
</defs>
</svg>
